# xmcd
#
# Track frame offsets: 
#        150
#        12883
#        33726
#        48866
#        63385
#        74740
#        90422
#        104880
#        126072
#        140610
#        157131
#        179639
#        191221
#
# Disc length: 2744 seconds
#
# Revision: 0
# Processed by: cddbd v1.5.2PL0 Copyright (c) Steve Scherf et al.
# Submitted via: ExactAudioCopy v1.2
#
DISCID=c80ab60d
DTITLE=Eric Bibb - Global Griot [CD1]
DYEAR=2018
DGENRE=Blues
TTITLE0=Gathering of the Tribes (feat. Solo Cissokho)
TTITLE1=Wherza Money At
TTITLE2=Human River
TTITLE3=What's He Gonna Say Today
TTITLE4=Brazos River Blues
TTITLE5=We Don't Care (feat. Habib Koité)
TTITLE6=Black, Brown and White
TTITLE7=Listen for the Spirit
TTITLE8=Hoist up the Banner
TTITLE9=Mami Wata - Sebastian's Tune (feat. Habib Koité)
TTITLE10=Send Me Your Jesus
TTITLE11=A Room for You
TTITLE12=Remember Family
EXTD=
EXTT0=
EXTT1=
EXTT2=
EXTT3=
EXTT4=
EXTT5=
EXTT6=
EXTT7=
EXTT8=
EXTT9=
EXTT10=
EXTT11=
EXTT12=
PLAYORDER=
